<svg id="Layer_1" data-name="Layer 1" xmlns="http://www.w3.org/2000/svg" viewBox="0 0 180.32 55.93"><defs><style>.cls-1,.cls-2{fill:#154baa;stroke:#154baa;stroke-miterlimit:10;stroke-width:0.75px;}.cls-2{font-size:22px;font-family:Ubuntu-Medium, Ubuntu;font-weight:500;}</style></defs><path class="cls-1" d="M98.37,62.41h0Z" transform="translate(-90.68 -38.92)"/><path class="cls-1" d="M159.59,62.08A27.5,27.5,0,0,0,123.3,40.89c-.58.21-1.14.4-1.19,1.13s.53,1,1.11,1.31c2.48,1.14,5,2.29,7.46,3.41a.94.94,0,0,1,.66,1c0,2.37,0,4.73,0,7.09a1.5,1.5,0,0,1-.49,1q-4.53,3.63-9.12,7.18a1.3,1.3,0,0,1-1,.16c-1.29-.36-2.56-.78-3.84-1.19l-4.6-1.44c-.8-.25-1.39,0-1.58.65s.12,1.16.92,1.44c.1,0,.21.06.31.09,2.69.85,5.37,1.71,8.06,2.54a1.16,1.16,0,0,1,.87.81c1.19,3.65,2.42,7.28,3.6,10.93a1.37,1.37,0,0,1-.19,1.06c-1.13,1.54-2.33,3-3.5,4.53-.59.76-.61,1.39-.06,1.84s1.2.26,1.78-.47c1.14-1.46,2.3-2.9,3.41-4.39a1.53,1.53,0,0,1,1.42-.67c1.9,0,3.81,0,5.72,0s4,0,6,0a1.62,1.62,0,0,1,1.07.49c1.07,1.25,2.05,2.56,3.1,3.82a.74.74,0,0,1,.08,1c-1.18,2.11-2.31,4.24-3.5,6.34a1.41,1.41,0,0,1-.88.68c-2.06.32-4.13.58-6.21.84-.81.1-1.28.52-1.24,1.19a1.11,1.11,0,0,0,1.31,1c1.25-.06,2.52-.12,3.77-.3A27.47,27.47,0,0,0,159.59,62.08Zm-4.53-6.67a25.41,25.41,0,0,1,2.59,8.68c-1.17-1.05-2.2-2-3.21-2.88a.48.48,0,0,1-.12-.36C154.55,59.11,154.79,57.37,155.06,55.41Zm-12.7-11.88a24.71,24.71,0,0,1,10.53,8.33,1.3,1.3,0,0,1,.28.85c-.31,2.48-.67,4.94-1,7.42a.79.79,0,0,1-.64.77c-2,.65-4,1.34-6,2a1.34,1.34,0,0,1-1-.16c-3.49-2.29-7-4.61-10.44-7a1.4,1.4,0,0,1-.52-1c-.06-1.18,0-2.36,0-3.55s0-2.36,0-3.54a.85.85,0,0,1,.56-.92c2.38-1.07,4.72-2.19,7.1-3.24A1.68,1.68,0,0,1,142.36,43.53Zm-16.11-1.24a23.53,23.53,0,0,1,12.19.08L132.76,45a.75.75,0,0,1-.52.06C130.29,44.16,128.36,43.26,126.25,42.29ZM139.6,76.13c-.08.24-.39.57-.6.57-4.08,0-8.16,0-12.3,0-.56-1.67-1.1-3.32-1.66-5-.69-2.06-1.37-4.12-2.07-6.18a.66.66,0,0,1,.19-.89c3.09-2.41,6.17-4.84,9.28-7.28a2.31,2.31,0,0,1,.35.18L143,64.35a.7.7,0,0,1,.34,1C142.07,68.93,140.85,72.53,139.6,76.13Zm3.1,13.67c.89-1.64,1.78-3.28,2.69-4.91a.8.8,0,0,1,.5-.34c1.72-.28,3.44-.54,5.2-.72A21.74,21.74,0,0,1,142.7,89.8Zm15.08-21.5a24.87,24.87,0,0,1-4.16,12.4,1.43,1.43,0,0,1-.88.54c-2.28.39-4.56.75-6.84,1.06A1.21,1.21,0,0,1,145,82q-1.62-1.9-3.12-3.9a1.23,1.23,0,0,1-.2-1q1.9-5.72,3.9-11.41a1.22,1.22,0,0,1,.67-.67c2-.7,4-1.34,6-2a1,1,0,0,1,1.15.25c1.2,1.1,2.44,2.18,3.66,3.26C157.82,67.17,157.82,67.17,157.78,68.3Z" transform="translate(-90.68 -38.92)"/><path class="cls-1" d="M128.1,93.26c0,.73-.57,1-1.76,1H96.84c-.24,0-.49,0-.72,0A1.08,1.08,0,0,1,96,92.14a5.36,5.36,0,0,1,.8,0h29.5C127.56,92.1,128.13,92.48,128.1,93.26Z" transform="translate(-90.68 -38.92)"/><path class="cls-1" d="M118.11,76.67c0,.35-.42.77-.74,1.06-.15.14-.51.09-.78.09H94.45a3.34,3.34,0,0,1-.64,0,1,1,0,0,1-.91-1.15,1,1,0,0,1,1-1,4.42,4.42,0,0,1,.73,0h21.9c.27,0,.62-.09.79,0C117.64,75.93,118.1,76.31,118.11,76.67Z" transform="translate(-90.68 -38.92)"/><path class="cls-1" d="M117.09,45.88c0,.68-.49,1.12-1.38,1.12H100.82c-.84,0-1.32-.42-1.33-1.08s.49-1.11,1.37-1.11c2.47,0,4.94,0,7.41,0s4.93,0,7.4,0C116.57,44.81,117.08,45.21,117.09,45.88Z" transform="translate(-90.68 -38.92)"/><path class="cls-1" d="M121.49,50.29c0,.69-.53,1.12-1.46,1.12q-6.24,0-12.49,0c-.94,0-1.46-.42-1.45-1.13s.53-1.08,1.42-1.09H120C121,49.2,121.48,49.59,121.49,50.29Z" transform="translate(-90.68 -38.92)"/><path class="cls-1" d="M116.81,83.32c-2.14,0-4.29,0-6.44,0s-4,0-6,0c-1,0-1.54-.39-1.53-1.13s.52-1.09,1.56-1.09h12.49c.65,0,1.17.21,1.3.93S117.76,83.32,116.81,83.32Z" transform="translate(-90.68 -38.92)"/><path class="cls-1" d="M111.57,71.2c0,.68-.46,1.09-1.3,1.11-1.23,0-2.46,0-3.69,0H103c-.87,0-1.38-.46-1.35-1.14s.52-1,1.35-1q3.61,0,7.23,0C111.1,70.12,111.57,70.53,111.57,71.2Z" transform="translate(-90.68 -38.92)"/><path class="cls-1" d="M102.78,50.3c0,.64-.5,1.1-1.3,1.11-1,0-2.09,0-3.13,0s-2,0-3.06,0c-.81,0-1.31-.45-1.31-1.1s.5-1.11,1.3-1.11c2.06,0,4.13,0,6.19,0C102.27,49.2,102.78,49.65,102.78,50.3Z" transform="translate(-90.68 -38.92)"/><path class="cls-1" d="M110.49,87.75a1.14,1.14,0,0,1-1.28,1.06c-1,0-2.09,0-3.14,0s-2,0-3.06,0c-.81,0-1.32-.45-1.32-1.1s.5-1.11,1.31-1.12h6.21A1.15,1.15,0,0,1,110.49,87.75Z" transform="translate(-90.68 -38.92)"/><path class="cls-1" d="M119.27,41.51c0,.66-.44,1.06-1.22,1.07q-2.61,0-5.22,0c-.77,0-1.22-.43-1.22-1.09s.45-1.05,1.23-1.07,1.77,0,2.65,0,1.72,0,2.57,0S119.28,40.84,119.27,41.51Z" transform="translate(-90.68 -38.92)"/><path class="cls-1" d="M100.55,63.49a1,1,0,0,1-1,1.09,14.79,14.79,0,0,1-2.4,0,1,1,0,0,1-1-1.07,1.05,1.05,0,0,1,1-1.11,4,4,0,0,1,.6,0H98.9a4,4,0,0,1,.6,0A1,1,0,0,1,100.55,63.49Z" transform="translate(-90.68 -38.92)"/><path class="cls-1" d="M124.77,54.76a1,1,0,0,1-1,1c-.38,0-.75,0-1.13,0H121.5a1,1,0,0,1-1.09-1.06,1,1,0,0,1,1-1.09,17.24,17.24,0,0,1,2.49,0A1,1,0,0,1,124.77,54.76Z" transform="translate(-90.68 -38.92)"/><path class="cls-1" d="M116.51,71.29a1.16,1.16,0,1,1-2.32,0,1.16,1.16,0,0,1,1.12-1.15A1.18,1.18,0,0,1,116.51,71.29Z" transform="translate(-90.68 -38.92)"/><path class="cls-1" d="M117.62,54.82a1.18,1.18,0,1,1-1.1-1.16A1.16,1.16,0,0,1,117.62,54.82Z" transform="translate(-90.68 -38.92)"/><path class="cls-1" d="M93.41,93.32a1.19,1.19,0,0,1-1.12,1.16,1.16,1.16,0,1,1,1.12-1.16Z" transform="translate(-90.68 -38.92)"/><text class="cls-2" transform="translate(81.22 37.17)">GoSport</text></svg>