<svg id="Layer_1" data-name="Layer 1" xmlns="http://www.w3.org/2000/svg" viewBox="0 0 512.95 412.93"><defs><style>.cls-1{fill:#154baa;stroke:#154baa;stroke-miterlimit:10;stroke-width:12px;}</style></defs><path class="cls-1" d="M497.21,348.2c-1.26,0-2.54-.05-3.8-.07,1.28,0,2.54.08,3.8.08l1.27,0Z" transform="translate(-438.05 -174.3)"/><path class="cls-1" d="M942,345.81C920.71,223.94,795,150.57,678.33,191.88c-4.22,1.49-8.27,2.92-8.62,8.21-.37,5.64,3.83,7.55,8,9.48,18.07,8.28,36.08,16.69,54.22,24.84,3.51,1.57,4.89,3.41,4.83,7.4-.26,17.17,0,34.34-.27,51.51a10.65,10.65,0,0,1-3.53,7.17q-32.9,26.36-66.23,52.16a9.34,9.34,0,0,1-7.2,1.16c-9.39-2.57-18.63-5.68-27.93-8.6-11.15-3.51-22.28-7.09-33.45-10.52-5.79-1.78-10.06.09-11.43,4.74s.89,8.44,6.68,10.49c.74.26,1.51.42,2.25.66,19.5,6.16,39,12.42,58.54,18.43,3.32,1,5.21,2.55,6.3,5.9,8.68,26.47,17.6,52.87,26.16,79.39a9.94,9.94,0,0,1-1.33,7.74c-8.25,11.13-16.94,21.93-25.44,32.85-4.32,5.54-4.44,10.16-.45,13.38s8.75,1.94,12.92-3.37c8.32-10.6,16.75-21.09,24.79-31.89,2.76-3.71,5.77-5,10.29-4.91,13.85.26,27.72.09,41.58.09,14.45,0,28.89-.18,43.33.17a11.72,11.72,0,0,1,7.79,3.55c7.74,9,14.88,18.57,22.5,27.71,2.15,2.58,2.09,4.47.55,7.22-8.53,15.33-16.78,30.83-25.43,46.09-1.24,2.2-4,4.57-6.37,4.93-15,2.34-30,4.22-45.09,6.08-5.88.73-9.34,3.82-9,8.64.33,4.58,3.83,7.63,9.47,7.35,9.15-.45,18.34-.85,27.39-2.15C885.3,561.84,961.34,456.66,942,345.81Zm-32.91-48.46c10.34,20.46,16.09,40.42,18.85,63.06-8.51-7.6-16-14.22-23.35-20.92a3.45,3.45,0,0,1-.84-2.61C905.39,324.25,907.13,311.63,909.08,297.35ZM816.81,211a179.43,179.43,0,0,1,76.5,60.54c1.25,1.69,2.33,4.24,2.08,6.22-2.23,18-4.89,35.9-7.12,53.87-.41,3.31-1.78,4.65-4.7,5.6-14.63,4.74-29.18,9.76-43.86,14.31a9.84,9.84,0,0,1-7.31-1.13q-38.11-25-75.88-50.58a10.15,10.15,0,0,1-3.75-7c-.44-8.56-.17-17.15-.17-25.73s.11-17.16-.06-25.74c-.07-3.3.84-5.26,4.09-6.72,17.23-7.74,34.28-15.85,51.55-23.5A12.17,12.17,0,0,1,816.81,211Zm-117.07-9c30.46-7.44,59.4-7.48,88.58.58-13.75,6.33-27.49,12.69-41.27,19-1.12.5-2.77.91-3.77.46C729.16,215.65,715.1,209.11,699.74,202Zm97,245.89c-.6,1.73-2.83,4.11-4.32,4.12-29.66.24-59.33.18-89.37.18C699,440.08,695,428.1,691,416.12q-7.51-22.46-15.06-44.9c-.85-2.51-1.28-4.42,1.38-6.5,22.48-17.49,44.83-35.16,67.39-52.92a24.5,24.5,0,0,1,2.56,1.3q37,24.64,74.07,49.25c2.88,1.91,3.68,3.59,2.45,7.11C814.69,395.57,805.87,421.79,796.76,447.91Zm22.55,99.36c6.48-11.92,12.94-23.87,19.56-35.72a5.73,5.73,0,0,1,3.61-2.49c12.47-2,25-3.86,37.75-5.18A158.26,158.26,0,0,1,819.31,547.27ZM928.85,391a180.42,180.42,0,0,1-30.19,90.07,10.66,10.66,0,0,1-6.44,3.93c-16.52,2.82-33.07,5.43-49.66,7.73a8.72,8.72,0,0,1-6.79-2.53C827.94,481,820.4,471.58,813.1,462a9.11,9.11,0,0,1-1.41-7.14q13.81-41.55,28.28-82.9a9,9,0,0,1,4.89-4.87c14.51-5.09,29.19-9.71,43.72-14.77,3.47-1.21,5.71-.57,8.31,1.82,8.76,8.05,17.74,15.86,26.63,23.74C929.13,382.81,929.13,382.81,928.85,391Z" transform="translate(-438.05 -174.3)"/><path class="cls-1" d="M713.23,572.36c-.23,5.31-4.14,7.64-12.83,7.64H486.09a51.21,51.21,0,0,1-5.26-.07c-4.54-.47-7.23-3.19-7.43-7.6s2.41-7.32,6.89-8.07a36.51,36.51,0,0,1,5.83-.28q107.14,0,214.31,0C709.32,564,713.45,566.7,713.23,572.36Z" transform="translate(-438.05 -174.3)"/><path class="cls-1" d="M640.65,451.82c.11,2.53-3,5.58-5.37,7.72-1.15,1-3.73.65-5.66.65q-80.46,0-160.93,0a21.87,21.87,0,0,1-4.65-.3c-4.43-.95-6.82-3.81-6.54-8.33.25-4.24,2.87-6.7,7-7.32a34,34,0,0,1,5.25-.14H629c1.94,0,4.47-.62,5.72.35C637.19,446.44,640.54,449.23,640.65,451.82Z" transform="translate(-438.05 -174.3)"/><path class="cls-1" d="M633.22,228.11c.1,4.95-3.58,8.15-10,8.16q-54.09.09-108.18,0c-6.15,0-9.59-3-9.67-7.86-.09-5,3.57-8,10-8.05,17.94,0,35.87,0,53.8,0s35.86,0,53.81,0C629.41,220.36,633.14,223.23,633.22,228.11Z" transform="translate(-438.05 -174.3)"/><path class="cls-1" d="M665.21,260.14c.07,5.06-3.85,8.18-10.61,8.19q-45.39,0-90.76,0c-6.83,0-10.64-3.12-10.5-8.27.12-4.95,3.78-7.83,10.29-7.86,15.23,0,30.45,0,45.68,0q22.55,0,45.08,0C661.3,252.21,665.15,255.09,665.21,260.14Z" transform="translate(-438.05 -174.3)"/><path class="cls-1" d="M631.21,500.16c-15.6.08-31.21,0-46.82,0q-21.95,0-43.9,0c-7.41,0-11.17-2.83-11.09-8.2s3.76-7.93,11.36-7.94q22.23,0,44.48,0h46.24c4.76,0,8.52,1.54,9.46,6.75C641.93,496.38,638.11,500.12,631.21,500.16Z" transform="translate(-438.05 -174.3)"/><path class="cls-1" d="M593.11,412.13c0,4.89-3.35,7.9-9.43,8-8.94.14-17.89,0-26.85,0-8.56,0-17.12.1-25.69,0-6.34-.1-10-3.32-9.83-8.27.17-4.68,3.81-7.63,9.8-7.65q26.28-.08,52.53,0C589.69,404.25,593.1,407.24,593.11,412.13Z" transform="translate(-438.05 -174.3)"/><path class="cls-1" d="M529.27,260.2c0,4.71-3.67,8-9.48,8.1-7.58.14-15.17,0-22.75,0-7.39,0-14.79.1-22.18,0-5.9-.09-9.52-3.27-9.54-8s3.59-8,9.47-8.06q22.45-.15,44.93,0C525.57,252.25,529.24,255.49,529.27,260.2Z" transform="translate(-438.05 -174.3)"/><path class="cls-1" d="M585.24,532.36c-.18,4.57-3.7,7.63-9.25,7.71-7.62.11-15.24,0-22.85,0-7.42,0-14.84.07-22.25,0-5.89-.08-9.56-3.25-9.58-8s3.62-8,9.54-8.09q22.56-.18,45.1,0C581.8,524.08,585.42,527.59,585.24,532.36Z" transform="translate(-438.05 -174.3)"/><path class="cls-1" d="M649.08,196.35c0,4.83-3.18,7.74-8.9,7.79q-19,.12-37.94,0c-5.6,0-8.85-3.11-8.83-7.88s3.26-7.68,8.94-7.8c6.42-.12,12.83,0,19.26,0,6.23,0,12.45-.11,18.68,0C646,188.58,649.12,191.53,649.08,196.35Z" transform="translate(-438.05 -174.3)"/><path class="cls-1" d="M513.08,356.11c.1,4.65-2.65,7.52-7,7.89a108.65,108.65,0,0,1-17.49,0c-4.33-.34-7.18-3.18-7.17-7.78,0-4.86,2.95-7.5,7.6-8a31.81,31.81,0,0,1,4.37-.13c1.26,0,2.54.07,3.8.07h1.28c.85,0,1.7-.05,2.54-.06a35.22,35.22,0,0,1,4.36.12C510,348.69,513,351.2,513.08,356.11Z" transform="translate(-438.05 -174.3)"/><path class="cls-1" d="M689,292.61c-.22,4.56-2.9,7.12-7.41,7.45-2.72.21-5.45.05-8.17.05s-5.46.11-8.18,0c-4.85-.23-7.7-3-7.88-7.68-.18-4.41,2.38-7.62,6.92-7.9a129.58,129.58,0,0,1,18.06,0C686.84,284.9,689.22,288.08,689,292.61Z" transform="translate(-438.05 -174.3)"/><path class="cls-1" d="M629,412.75a8.43,8.43,0,1,1-8.74-8.36A8.56,8.56,0,0,1,629,412.75Z" transform="translate(-438.05 -174.3)"/><path class="cls-1" d="M637.08,293.1a8.55,8.55,0,1,1-8-8.47A8.53,8.53,0,0,1,637.08,293.1Z" transform="translate(-438.05 -174.3)"/><path class="cls-1" d="M461.14,572.83a8.54,8.54,0,1,1-8.69-8.39A8.54,8.54,0,0,1,461.14,572.83Z" transform="translate(-438.05 -174.3)"/></svg>